<?xml version="1.0" encoding="UTF-8"?>
<svg version="1.1" xmlns="http://www.w3.org/2000/svg" width="512" height="512">
<path d="M0 0 C1.01790619 0.00215515 2.03581238 0.0043103 3.08456421 0.00653076 C17.69363523 0.05620146 32.02575853 0.30709809 46.375 3.3125 C47.34985352 3.51117676 48.32470703 3.70985352 49.32910156 3.91455078 C97.7109774 14.03517194 141.69928269 35.9516877 177.375 70.3125 C178.3640332 71.26068604 178.3640332 71.26068604 179.37304688 72.22802734 C188.86130305 81.37247479 197.6012044 90.66984009 205.375 101.3125 C206.23306152 102.46355017 207.09113451 103.61459177 207.94921875 104.765625 C213.98736829 112.95680614 219.34595521 121.47054105 224.375 130.3125 C224.73948242 130.94430176 225.10396484 131.57610352 225.47949219 132.22705078 C247.08534998 169.97532572 256.85198095 212.74189997 256.6875 255.9375 C256.68534485 256.95540619 256.6831897 257.97331238 256.68096924 259.02206421 C256.63129854 273.63113523 256.38040191 287.96325853 253.375 302.3125 C253.07698486 303.77478027 253.07698486 303.77478027 252.77294922 305.26660156 C242.65232806 353.6484774 220.7358123 397.63678269 186.375 433.3125 C185.74287598 433.97185547 185.11075195 434.63121094 184.45947266 435.31054688 C175.31502521 444.79880305 166.01765991 453.5387044 155.375 461.3125 C154.22394983 462.17056152 153.07290823 463.02863451 151.921875 463.88671875 C143.73224019 469.92427396 135.22961724 475.30707302 126.375 480.3125 C125.66778809 480.7146875 124.96057617 481.116875 124.23193359 481.53125 C101.09654164 494.5566741 75.92537591 503.30551461 49.9375 508.625 C49.21860596 508.77235596 48.49971191 508.91971191 47.7590332 509.0715332 C33.08339502 511.86090125 18.55831162 512.66142619 3.64770508 512.62817383 C0.70811513 512.6250221 -2.2304558 512.64854926 -5.16992188 512.67382812 C-18.54306192 512.71848737 -31.43916711 511.51301542 -44.625 509.3125 C-46.33055054 509.03031616 -46.33055054 509.03031616 -48.07055664 508.74243164 C-91.33802759 500.97044532 -132.38793216 480.98345309 -165.625 452.3125 C-166.37007813 451.67828125 -167.11515625 451.0440625 -167.8828125 450.390625 C-181.38779833 438.57948485 -194.05918743 425.82889772 -204.625 411.3125 C-205.48149066 410.16255169 -206.33826433 409.01281411 -207.1953125 407.86328125 C-213.23534209 399.67315742 -218.61867614 391.16870382 -223.625 382.3125 C-224.0271875 381.60528809 -224.429375 380.89807617 -224.84375 380.16943359 C-237.8691741 357.03404164 -246.61801461 331.86287591 -251.9375 305.875 C-252.08485596 305.15610596 -252.23221191 304.43721191 -252.3840332 303.6965332 C-255.35789088 288.05024391 -255.99800362 272.57681954 -255.9375 256.6875 C-255.93534485 255.66959381 -255.9331897 254.65168762 -255.93096924 253.60293579 C-255.88129854 238.99386477 -255.63040191 224.66174147 -252.625 210.3125 C-252.42632324 209.33764648 -252.22764648 208.36279297 -252.02294922 207.35839844 C-241.90232806 158.9765226 -219.9858123 114.98821731 -185.625 79.3125 C-184.99287598 78.65314453 -184.36075195 77.99378906 -183.70947266 77.31445312 C-174.56502521 67.82619695 -165.26765991 59.0862956 -154.625 51.3125 C-153.47394983 50.45443848 -152.32290823 49.59636549 -151.171875 48.73828125 C-142.98224019 42.70072604 -134.47961724 37.31792698 -125.625 32.3125 C-124.91778809 31.9103125 -124.21057617 31.508125 -123.48193359 31.09375 C-100.34654164 18.0683259 -75.17537591 9.31948539 -49.1875 4 C-48.46860596 3.85264404 -47.74971191 3.70528809 -47.0090332 3.5534668 C-31.36274391 0.57960912 -15.88931954 -0.06050362 0 0 Z " fill="#9C50F2" transform="translate(255.625,-0.3125)"/>
<path d="M0 0 C15.09529403 10.38885896 24.25724872 24.16451054 28.71875 41.87109375 C31.73571133 59.81714759 28.11615275 75.44444394 17.9765625 90.44921875 C8.63600716 103.08416082 -3.73027075 109.0851522 -18.28125 113.87109375 C-17.69746582 113.88567627 -17.11368164 113.90025879 -16.51220703 113.9152832 C-13.80963041 113.9907846 -11.10815536 114.08709713 -8.40625 114.18359375 C-7.4884375 114.20615234 -6.570625 114.22871094 -5.625 114.25195312 C5.52553219 114.68383994 14.54879863 117.25276819 22.34375 125.55859375 C27.51959095 131.73287852 30.40885714 137.76233487 29.71875 145.87109375 C30.6675 145.78859375 31.61625 145.70609375 32.59375 145.62109375 C39.97879896 145.65099273 46.89684669 149.19192733 52.19140625 154.1875 C57.75457251 160.31978813 59.9120792 166.88061479 61.71875 174.87109375 C63.1728125 173.67226563 63.1728125 173.67226563 64.65625 172.44921875 C72.23977707 166.22627408 79.90413158 160.1648789 87.78515625 154.32324219 C92.34321041 150.93363453 96.8016184 147.44199593 101.21875 143.87109375 C106.51249951 139.60230425 111.85882545 135.41299829 117.28125 131.30859375 C117.93609375 130.80779297 118.5909375 130.30699219 119.265625 129.79101562 C125.03890877 125.45212504 130.00250163 122.21931562 137.4140625 122.53125 C142.74366884 123.3171411 147.12222563 125.53593081 150.41821289 129.86889648 C154.51063372 136.79822753 153.36648502 145.62166098 153.27734375 153.40625 C153.27383946 155.26425921 153.27235224 157.12227318 153.27275085 158.98028564 C153.26681924 163.94109646 153.22849603 168.90114873 153.18228912 173.86172867 C153.14755884 177.9588993 153.13053237 182.05607199 153.11294556 186.15334606 C153.00663816 209.83646405 152.69815045 233.514735 151.84375 257.18359375 C151.80490692 258.28478546 151.76606384 259.38597717 151.7260437 260.52053833 C150.50575791 293.53655303 150.50575791 293.53655303 143.71875 299.87109375 C138.88570787 303.64086661 134.72826153 304.77105774 128.58203125 304.48828125 C123.59044 303.41233116 120.24415822 300.49070337 116.39453125 297.2578125 C113.79690676 295.1082631 111.1159933 293.06895319 108.44506836 291.01171875 C104.52091537 287.98457481 100.62210076 284.92498152 96.71875 281.87109375 C93.67871272 279.49399894 90.63682254 277.11930133 87.59375 274.74609375 C86.49268921 273.88479858 86.49268921 273.88479858 85.36938477 273.00610352 C81.62904473 270.09099019 77.86193221 267.22528746 74.03125 264.4296875 C73.28504395 263.8826416 72.53883789 263.3355957 71.77001953 262.77197266 C70.35016933 261.73567634 68.92428559 260.70758201 67.49169922 259.68896484 C65.8465209 258.48722173 64.27411602 257.18700969 62.71875 255.87109375 C62.71875 254.88109375 62.71875 253.89109375 62.71875 252.87109375 C61.72875 252.87109375 60.73875 252.87109375 59.71875 252.87109375 C59.6775 253.94359375 59.63625 255.01609375 59.59375 256.12109375 C58.63821717 263.57955837 54.94897797 271.30581893 49.34375 276.37109375 C42.79292199 281.2411172 36.88877166 283.49285201 28.71875 283.87109375 C28.80125 284.67546875 28.88375 285.47984375 28.96875 286.30859375 C28.3717309 294.81611599 23.22972896 302.60395149 17.12890625 308.375 C8.82642096 314.91931194 -1.02915349 315.3066374 -11.19140625 315.19921875 C-12.44331757 315.19775345 -13.69522888 315.19628815 -14.9850769 315.19477844 C-18.3937128 315.18709163 -21.80169776 315.16565084 -25.210186 315.13719559 C-28.08712996 315.11548352 -30.96407434 315.10485293 -33.84107685 315.09409809 C-65.32389866 314.97393991 -96.80464891 314.48583113 -128.28125 313.87109375 C-129.96513824 313.83855499 -129.96513824 313.83855499 -131.68304443 313.80535889 C-138.59102445 313.67093932 -145.49869561 313.52577673 -152.40625 313.37109375 C-153.23744354 313.35321808 -154.06863708 313.33534241 -154.92501831 313.31692505 C-193.18655491 312.47694212 -193.18655491 312.47694212 -204.28125 301.87109375 C-211.33635463 294.30765189 -213.65533415 285.90420367 -213.9765625 275.73046875 C-214.01406616 274.86787445 -214.05156982 274.00528015 -214.09020996 273.11654663 C-214.20920128 270.28508834 -214.30845909 267.45335779 -214.40625 264.62109375 C-214.48428167 262.60398132 -214.56290619 260.58689175 -214.64208984 258.56982422 C-214.87975334 252.33765687 -215.08482973 246.10468145 -215.28125 239.87109375 C-215.31154297 238.92810425 -215.34183594 237.98511475 -215.37304688 237.0135498 C-215.785521 224.03951981 -216.06514143 211.06568927 -216.23834229 198.08630371 C-216.26826828 195.84385458 -216.2995861 193.60142377 -216.33197021 191.35900879 C-216.43889773 183.84763136 -216.51852773 176.3366379 -216.56634521 168.824646 C-216.58446014 166.37654886 -216.60912566 163.9284905 -216.64068604 161.48052979 C-216.68257798 158.05322669 -216.69807948 154.62674611 -216.70703125 151.19921875 C-216.73321785 149.67870407 -216.73321785 149.67870407 -216.75993347 148.12747192 C-216.73241924 138.96971301 -213.6593989 130.60358426 -207.28125 123.87109375 C-200.63612639 118.53038329 -194.39830534 115.70300962 -185.7890625 115.45703125 C-184.59023437 115.41835937 -183.39140625 115.3796875 -182.15625 115.33984375 C-180.91875 115.30890625 -179.68125 115.27796875 -178.40625 115.24609375 C-177.14554688 115.20742187 -175.88484375 115.16875 -174.5859375 115.12890625 C-171.48451863 115.03492386 -168.38310114 114.94925964 -165.28125 114.87109375 C-165.99482666 114.68933594 -166.70840332 114.50757813 -167.44360352 114.3203125 C-183.70796804 110.05424967 -198.04011735 102.05906373 -207.0390625 87.3359375 C-214.57703394 72.37851618 -217.19443917 55.94454442 -212.3203125 39.63671875 C-208.97460945 30.73161438 -204.57227519 23.00524603 -198.28125 15.87109375 C-197.62511719 15.12085937 -196.96898437 14.370625 -196.29296875 13.59765625 C-184.98103573 1.47920515 -170.00230912 -6.07477193 -153.40136719 -6.66723633 C-140.45979098 -6.78118297 -129.20343433 -4.3294574 -118.28125 2.87109375 C-117.54390625 3.350625 -116.8065625 3.83015625 -116.046875 4.32421875 C-104.24428679 12.70812624 -96.49172257 25.87960196 -93.28125 39.87109375 C-91.58041752 59.70163782 -93.96111243 76.44906227 -106.34765625 92.55859375 C-115.80358406 103.6553534 -125.41250629 108.32359626 -139.28125 113.87109375 C-108.59125 113.87109375 -77.90125 113.87109375 -46.28125 113.87109375 C-50.57125 112.22109375 -54.86125 110.57109375 -59.28125 108.87109375 C-75.31535614 99.88494635 -84.55633915 87.74305943 -91.28125 70.87109375 C-94.89395446 50.8370054 -91.75332441 33.21452071 -80.50390625 16.1796875 C-61.81931463 -9.06228722 -26.9990492 -15.92149813 0 0 Z " fill="#FB6EFE" transform="translate(295.28125,80.12890625)"/>
<path d="M0 0 C60.72 0 121.44 0 184 0 C184 33 184 66 184 100 C164.93749189 100.02730584 145.87501785 100.05099514 126.8125 100.0625 C126.11327077 100.0629343 125.41404154 100.06336861 124.69362354 100.06381607 C83.45510657 100.08874645 42.22859335 100.03305019 1 99 C-1.19523933 66.07141006 0 33.00168346 0 0 Z " fill="#8656F0" transform="translate(110,226)"/>
<path d="M0 0 C4.44610494 1.88749738 7.35503902 4.40456482 9.80130005 8.54660034 C12.21361957 15.25154966 11.45952176 22.87401643 11.37890625 29.9140625 C11.37540196 31.77207171 11.37391474 33.63008568 11.37431335 35.48809814 C11.36838174 40.44890896 11.33005853 45.40896123 11.28385162 50.36954117 C11.24912134 54.4667118 11.23209487 58.56388449 11.21450806 62.66115856 C11.10820066 86.34427655 10.79971295 110.0225475 9.9453125 133.69140625 C9.90646942 134.79259796 9.86762634 135.89378967 9.8276062 137.02835083 C8.60732041 170.04436553 8.60732041 170.04436553 1.8203125 176.37890625 C-3.01272963 180.14867911 -7.17017597 181.27887024 -13.31640625 180.99609375 C-18.3079975 179.92014366 -21.65427928 176.99851587 -25.50390625 173.765625 C-28.10153074 171.6160756 -30.7824442 169.57676569 -33.45336914 167.51953125 C-37.37752213 164.49238731 -41.27633674 161.43279402 -45.1796875 158.37890625 C-48.21972478 156.00181144 -51.26161496 153.62711383 -54.3046875 151.25390625 C-55.03872803 150.67970947 -55.77276855 150.1055127 -56.52905273 149.51391602 C-60.26939277 146.59880269 -64.03650529 143.73309996 -67.8671875 140.9375 C-68.61339355 140.3904541 -69.35959961 139.8434082 -70.12841797 139.27978516 C-71.54826817 138.24348884 -72.97415191 137.21539451 -74.40673828 136.19677734 C-76.0519166 134.99503423 -77.62432148 133.69482219 -79.1796875 132.37890625 C-79.1796875 131.38890625 -79.1796875 130.39890625 -79.1796875 129.37890625 C-80.1696875 129.37890625 -81.1596875 129.37890625 -82.1796875 129.37890625 C-82.2209375 130.45140625 -82.2621875 131.52390625 -82.3046875 132.62890625 C-83.26022033 140.08737087 -86.94945953 147.81363143 -92.5546875 152.87890625 C-97.66122221 156.67521166 -102.53350113 159.38879131 -108.9375 159.984375 C-109.73559082 160.06196045 -110.53368164 160.1395459 -111.35595703 160.21948242 C-112.25870361 160.29839722 -112.25870361 160.29839722 -113.1796875 160.37890625 C-113.26897491 131.58938354 -113.02206051 102.80626943 -112.71612549 74.01855469 C-112.65439924 68.17058732 -112.59488702 62.3225974 -112.53515625 56.47460938 C-112.41876247 45.10935266 -112.30002855 33.74412181 -112.1796875 22.37890625 C-103.32957038 22.26879794 -96.24232606 24.52906963 -89.70703125 30.6953125 C-84.14386499 36.82760063 -81.9863583 43.38842729 -80.1796875 51.37890625 C-79.2103125 50.5796875 -78.2409375 49.78046875 -77.2421875 48.95703125 C-69.65866043 42.73408658 -61.99430592 36.6726914 -54.11328125 30.83105469 C-49.55522709 27.44144703 -45.0968191 23.94980843 -40.6796875 20.37890625 C-35.38593799 16.11011675 -30.03961205 11.92081079 -24.6171875 7.81640625 C-23.63492188 7.06520508 -23.63492188 7.06520508 -22.6328125 6.29882812 C-15.39210395 0.85709974 -9.13392655 -2.602678 0 0 Z " fill="#F766FD" transform="translate(437.1796875,203.62109375)"/>
<path d="M0 0 C15.09529403 10.38885896 24.25724872 24.16451054 28.71875 41.87109375 C31.73571133 59.81714759 28.11615275 75.44444394 17.9765625 90.44921875 C10.19802725 100.97122079 0.01010277 107.68085985 -12.28125 111.87109375 C-13.16296875 112.18949219 -14.0446875 112.50789063 -14.953125 112.8359375 C-29.61981766 117.54403263 -45.45140246 115.04997521 -59.28125 108.87109375 C-75.36785587 100.42224613 -84.68258238 87.42633086 -91.28125 70.87109375 C-94.89395446 50.8370054 -91.75332441 33.21452071 -80.50390625 16.1796875 C-61.81931463 -9.06228722 -26.9990492 -15.92149813 0 0 Z " fill="#FC6EFE" transform="translate(295.28125,80.12890625)"/>
<path d="M0 0 C1.65669708 -0.00856522 1.65669708 -0.00856522 3.34686279 -0.01730347 C4.54387817 -0.01842133 5.74089355 -0.01953918 6.97418213 -0.02069092 C8.24646667 -0.02565582 9.51875122 -0.03062073 10.82958984 -0.03573608 C14.30913337 -0.04880526 17.78865764 -0.05529427 21.26822186 -0.05974674 C23.4462961 -0.06268633 25.62436519 -0.06679277 27.80243683 -0.07125092 C34.62934205 -0.08491136 41.45623536 -0.09458513 48.2831533 -0.09845281 C56.14121929 -0.10293023 63.99911105 -0.12046947 71.85712409 -0.1494534 C77.94652651 -0.17112777 84.03588012 -0.18116015 90.12532067 -0.18249393 C93.75520307 -0.18353783 97.38492138 -0.18935676 101.01476288 -0.20731354 C105.06905046 -0.22698146 109.12297696 -0.22248243 113.17730713 -0.21600342 C114.36622559 -0.2252182 115.55514404 -0.23443298 116.78009033 -0.243927 C127.19187418 -0.19195736 136.38459688 1.38665685 144.11187744 8.85919189 C151.30682142 16.52568611 153.95141105 23.9582898 153.80450439 34.39385986 C153.80669479 35.37948914 153.80888519 36.36511841 153.81114197 37.38061523 C153.81344642 40.63163215 153.78716943 43.88173302 153.76031494 47.13262939 C153.75537542 49.43813797 153.75208675 51.7436506 153.75035095 54.04916382 C153.74075829 60.13851229 153.70637805 66.22748972 153.66748047 72.31671143 C153.64072736 77.15622988 153.6317826 81.9956974 153.62373543 86.83527756 C153.60024659 100.83276008 153.50707431 114.82877598 153.3662796 128.82554626 C153.33493068 132.09898882 153.30923125 135.37243528 153.28466797 138.64593506 C153.2446644 143.69453 153.18337674 148.74242613 153.10463524 153.79056168 C153.07860323 155.62652785 153.05887537 157.46259634 153.0460453 159.29870224 C152.91092374 176.95931368 152.91092374 176.95931368 148.33453369 184.14044189 C147.85371338 184.94997314 147.37289307 185.75950439 146.87750244 186.59356689 C141.99081665 193.07159416 137.17982513 196.85561095 129.33453369 199.14044189 C126.35845947 199.36749268 126.35845947 199.36749268 123.27984619 199.33575439 C122.17125244 199.32930908 121.06265869 199.32286377 119.92047119 199.31622314 C118.20730713 199.29108643 118.20730713 199.29108643 116.45953369 199.26544189 C115.29422119 199.25641846 114.12890869 199.24739502 112.92828369 199.23809814 C110.06348792 199.21461621 107.19911834 199.1817733 104.33453369 199.14044189 C105.07574463 198.40180908 105.81695557 197.66317627 106.58062744 196.90216064 C110.02097122 193.45862593 110.02097122 193.45862593 113.39703369 189.95294189 C114.04801025 189.27876221 114.69898682 188.60458252 115.36968994 187.90997314 C121.40399527 179.40436185 121.91938345 170.96653927 121.88043213 160.78643799 C121.88924655 159.34343673 121.89979838 157.90044522 121.91193008 156.45746803 C121.93945419 152.62088217 121.943447 148.78462253 121.94229126 144.94795227 C121.9448481 141.33728223 121.96899211 137.72687639 121.99127197 134.11627197 C122.04386184 123.58274735 122.06213678 113.04907398 122.08453369 102.51544189 C122.16703369 78.96169189 122.24953369 55.40794189 122.33453369 31.14044189 C61.61453369 31.14044189 0.89453369 31.14044189 -61.66546631 31.14044189 C-61.66546631 30.81044189 -61.66546631 30.48044189 -61.66546631 30.14044189 C-51.43546631 30.14044189 -41.20546631 30.14044189 -30.66546631 30.14044189 C-30.66546631 27.83044189 -30.66546631 25.52044189 -30.66546631 23.14044189 C-28.53706384 15.42811294 -23.79829516 8.79543473 -16.91546631 4.70294189 C-13.66546631 3.14044189 -13.66546631 3.14044189 -11.66546631 3.14044189 C-11.66546631 2.48044189 -11.66546631 1.82044189 -11.66546631 1.14044189 C-7.72945085 0.4097065 -4.00133693 0.01246486 0 0 Z " fill="#FEF0FE" transform="translate(171.66546630859375,194.85955810546875)"/>
<path d="M0 0 C19.87385649 -0.03020683 39.74395128 0.0456101 59.6171875 0.21875 C62.30957964 0.2412793 65.00197243 0.26370939 67.69436646 0.28601074 C73.96200229 0.3381364 80.22962678 0.39151031 86.49724782 0.4453826 C93.65620277 0.50685166 100.81516983 0.56685317 107.97413802 0.62675762 C122.64943888 0.74958837 137.32472448 0.87417693 152 1 C152.09951 7.08312305 152.17177017 13.16576338 152.21972656 19.24951172 C152.23973625 21.31535098 152.26695283 23.38113437 152.30175781 25.44677734 C152.35074716 28.43080503 152.37307564 31.41407846 152.390625 34.3984375 C152.41127014 35.30927094 152.43191528 36.22010437 152.45318604 37.15853882 C152.45628729 46.1932068 149.82206202 53.84480176 143.5 60.4375 C142.37078125 61.64212891 142.37078125 61.64212891 141.21875 62.87109375 C139 65 139 65 135 68 C141.6 68.33 148.2 68.66 155 69 C155 69.33 155 69.66 155 70 C138.03030058 70.05624469 121.06113304 70.06967778 104.09140015 70.02787781 C102.52789314 70.02408957 100.96438606 70.02033091 99.40087891 70.01660156 C98.62447996 70.01474004 97.84808102 70.01287851 97.04815483 70.01096058 C91.61587249 69.99946676 86.18374391 70.00381304 80.75146484 70.01464844 C74.0500192 70.0274626 67.34917624 70.01382348 60.6478548 69.96992779 C57.11700784 69.94749631 53.58707088 69.93668273 50.05618286 69.95559692 C20.58542387 70.09648564 20.58542387 70.09648564 9.72363281 59.85327148 C4.31402986 54.2472025 1.59808402 48.24206592 0.8125 40.5 C0.73209473 39.7589502 0.65168945 39.01790039 0.56884766 38.25439453 C-0.4061957 27.75760579 -0.15921538 17.18509616 -0.06166077 6.65542603 C-0.04444017 4.78485251 -0.04444017 4.78485251 -0.02687168 2.87648964 C-0.01800403 1.92724806 -0.00913637 0.97800648 0 0 Z " fill="#FDBAFE" transform="translate(142,325)"/>
<path d="M0 0 C1.71109451 0.00022659 1.71109451 0.00022659 3.45675659 0.00045776 C4.6725943 0.01078033 5.88843201 0.02110291 7.14111328 0.03173828 C8.39779816 0.03456818 9.65448303 0.03739807 10.94924927 0.04031372 C14.27343442 0.04958956 17.59734002 0.06752697 20.92144775 0.08972168 C24.32016599 0.11026266 27.71891322 0.119333 31.11767578 0.12939453 C37.77400246 0.15141699 44.43019799 0.18486645 51.08642578 0.22705078 C51.08642578 0.88705078 51.08642578 1.54705078 51.08642578 2.22705078 C49.58020165 3.16174323 48.02898955 4.02434012 46.46142578 4.85205078 C40.22022201 8.47654589 36.60795003 12.67682754 33.77392578 19.28955078 C33.0082522 22.56106518 32.56159023 25.90089966 32.08642578 29.22705078 C21.85642578 29.22705078 11.62642578 29.22705078 1.08642578 29.22705078 C1.41642578 62.22705078 1.74642578 95.22705078 2.08642578 129.22705078 C12.31642578 129.22705078 22.54642578 129.22705078 33.08642578 129.22705078 C33.21017578 133.80580078 33.33392578 138.38455078 33.46142578 143.10205078 C32.8971376 166.62990781 32.8971376 166.62990781 42.08642578 187.22705078 C46.27508317 191.12367031 50.86877027 193.8791058 56.08642578 196.22705078 C56.08642578 196.55705078 56.08642578 196.88705078 56.08642578 197.22705078 C50.66447267 197.2521078 45.2425546 197.27007641 39.82055664 197.28198242 C37.98298555 197.28695533 36.14541829 197.29373603 34.30786133 197.30249023 C-6.13142128 197.49006672 -6.13142128 197.49006672 -17.91357422 186.22705078 C-24.96867885 178.66360892 -27.28765837 170.2601607 -27.60888672 160.08642578 C-27.64639038 159.22383148 -27.68389404 158.36123718 -27.72253418 157.47250366 C-27.8415255 154.64104537 -27.94078331 151.80931483 -28.03857422 148.97705078 C-28.11660589 146.95993835 -28.19523041 144.94284878 -28.27441406 142.92578125 C-28.51207756 136.6936139 -28.71715395 130.46063848 -28.91357422 124.22705078 C-28.94386719 123.28406128 -28.97416016 122.34107178 -29.00537109 121.36950684 C-29.41784522 108.39547685 -29.69746565 95.4216463 -29.8706665 82.44226074 C-29.9005925 80.19981161 -29.93191032 77.9573808 -29.96429443 75.71496582 C-30.07122195 68.20358839 -30.15085195 60.69259493 -30.19866943 53.18060303 C-30.21678436 50.7325059 -30.24144988 48.28444753 -30.27301025 45.83648682 C-30.3149022 42.40918373 -30.3304037 38.98270315 -30.33935547 35.55517578 C-30.3568132 34.54149933 -30.37427094 33.52782288 -30.39225769 32.48342896 C-30.36474346 23.32567004 -27.29172312 14.95954129 -20.91357422 8.22705078 C-14.51077108 3.08109418 -8.35169681 -0.03711865 0 0 Z " fill="#FC9DFE" transform="translate(108.91357421875,195.77294921875)"/>
<path d="M0 0 C40.59 0 81.18 0 123 0 C123 22.77 123 45.54 123 69 C108.8615625 69.0928125 108.8615625 69.0928125 94.4375 69.1875 C90.02201782 69.22846802 90.02201782 69.22846802 85.51733398 69.27026367 C60.23284447 69.40880246 60.23284447 69.40880246 49 66 C48.25613037 65.77546143 47.51226074 65.55092285 46.74584961 65.31958008 C28.99997091 59.26342865 15.55523836 46.31515449 6.97070312 29.98046875 C2.09995173 20.04295986 0.86753652 11.27797474 0 0 Z " fill="#E154FB" transform="translate(171,226)"/>
<path d="M0 0 C0.97807114 -0.0065712 1.95614227 -0.0131424 2.96385193 -0.01991272 C6.18985074 -0.03956841 9.41580317 -0.05129111 12.6418457 -0.0612793 C13.74793497 -0.06535482 14.85402424 -0.06943035 15.99363136 -0.07362938 C21.84829138 -0.09445721 27.70292819 -0.10877313 33.55761719 -0.11816406 C39.58528129 -0.12922139 45.61257554 -0.1636234 51.64010906 -0.20333576 C56.29259398 -0.22955442 60.94499143 -0.23786058 65.59754372 -0.24144554 C67.81855581 -0.24629789 70.03956435 -0.25787298 72.26050377 -0.27648354 C99.42089831 -0.48993216 99.42089831 -0.48993216 110.18481445 9.9074707 C116.01082366 16.70448145 117.13168322 22.1910084 118.13012695 31.17700195 C57.41012695 31.17700195 -3.30987305 31.17700195 -65.86987305 31.17700195 C-65.86987305 30.84700195 -65.86987305 30.51700195 -65.86987305 30.17700195 C-55.63987305 30.17700195 -45.40987305 30.17700195 -34.86987305 30.17700195 C-34.86987305 27.86700195 -34.86987305 25.55700195 -34.86987305 23.17700195 C-32.74147058 15.464673 -28.0027019 8.83199478 -21.11987305 4.73950195 C-17.86987305 3.17700195 -17.86987305 3.17700195 -15.86987305 3.17700195 C-15.86987305 2.51700195 -15.86987305 1.85700195 -15.86987305 1.17700195 C-10.55017097 0.08558101 -5.40417361 0.01588256 0 0 Z " fill="#FDD3FE" transform="translate(175.869873046875,194.822998046875)"/>
<path d="M0 0 C8.86230111 -0.11025989 15.90110078 2.16293846 22.46875 8.296875 C29.21389331 15.79912623 31.32064292 23.40385581 31.140625 33.30078125 C31.13170227 34.24456131 31.12277954 35.18834137 31.11358643 36.16072083 C31.09320789 38.27566569 31.0686977 40.39057346 31.04077148 42.50543213 C30.99720167 46.23984811 30.97790099 49.97385918 30.96289062 53.70849609 C30.93676777 60.02581275 30.88568881 66.34254323 30.81606293 72.65952873 C30.77634611 76.30893045 30.74420887 79.9580728 30.72900391 83.60766602 C30.7137484 87.21247452 30.67923064 90.81664508 30.63169098 94.42116737 C30.61006712 96.41660017 30.60754367 98.41221156 30.60565186 100.40776062 C30.42862836 111.44564539 28.17862403 122.03063714 20 130 C13.5135375 134.8139201 7.16527675 138 -1 138 C-1.08928741 109.21047729 -0.84237301 80.42736318 -0.53643799 51.63964844 C-0.47471174 45.79168107 -0.41519952 39.94369115 -0.35546875 34.09570312 C-0.23907497 22.73044641 -0.12034105 11.36521556 0 0 Z " fill="#F695FD" transform="translate(325,226)"/>
<path d="M0 0 C10.23 0 20.46 0 31 0 C31.391875 2.35125 31.78375 4.7025 32.1875 7.125 C35.69137046 26.22920391 43.86089849 43.5904872 60 55.1484375 C70.98573597 62.25219466 82.02006625 66.43305304 95 68 C95 68.33 95 68.66 95 69 C86.73059791 69.02355985 78.4612107 69.04113055 70.19178295 69.05181217 C66.34862743 69.05694842 62.50549547 69.06386875 58.66235352 69.07543945 C39.41315546 69.13189448 20.23232944 68.90952258 1 68 C0.85469937 61.36960771 0.71268423 54.73915036 0.57275391 48.10864258 C0.52497438 45.86188229 0.47649399 43.61513678 0.42724609 41.3684082 C0.12545015 27.57510179 -0.0546137 13.79678648 0 0 Z " fill="#A954F4" transform="translate(140,226)"/>
<path d="M0 0 C9.9 0 19.8 0 30 0 C30.90101497 14.84781814 31.27506115 29.66983882 31.50268555 44.54223633 C31.56234368 48.42731991 31.62742914 52.31228392 31.69335938 56.19726562 C31.92268618 70.13361213 32.04675012 84.06178706 32 98 C21.77 98 11.54 98 1 98 C-0.14882047 81.91651337 -0.14882047 81.91651337 -0.11352539 74.69970703 C-0.11367142 73.87836273 -0.11381744 73.05701843 -0.1139679 72.21078491 C-0.1132844 69.55976493 -0.10556741 66.90881984 -0.09765625 64.2578125 C-0.09578648 62.39452147 -0.09436523 60.53122994 -0.09336853 58.66793823 C-0.08958729 53.81177362 -0.07979562 48.95563989 -0.06866455 44.0994873 C-0.05835489 39.12492287 -0.05385063 34.15035334 -0.04882812 29.17578125 C-0.0381685 19.45050523 -0.02060839 9.72526003 0 0 Z " fill="#8055EF" transform="translate(110,226)"/>
<path d="M0 0 C8.69488575 4.9835117 13.30806202 12.04918607 16.4375 21.4375 C17.30820503 32.54255756 16.1872766 40.1402367 9.0625 48.75 C3.61254649 54.59504609 -2.07047082 58.01251154 -10.11328125 58.7734375 C-21.36507212 58.89027853 -28.46316307 57.13042382 -36.76953125 49.4375 C-43.43489488 42.00249743 -44.93099465 34.54890443 -44.84375 24.83203125 C-44.23745403 17.51437569 -41.23583357 10.28538319 -35.5625 5.4375 C-24.42886275 -2.44269553 -12.93463422 -6.09451437 0 0 Z " fill="#FEEBFF" transform="translate(277.5625,105.5625)"/>
<path d="M0 0 C7.78130987 8.13500577 10.24802142 16.00847738 10.0234375 27.07421875 C9.3376859 36.60616594 4.01773528 43.27303171 -3.01171875 49.4140625 C-10.56305469 55.21756113 -18.98884232 55.76398111 -28.25 54.875 C-36.38024247 52.80209848 -42.57533318 47.32391248 -47.625 40.8125 C-51.77408169 33.31223694 -52.60767114 25.53331803 -50.59765625 17.15625 C-46.68271852 6.26835451 -38.62300257 -0.52042096 -28.4375 -5.5 C-17.72683276 -7.60013083 -9.08499193 -5.94018703 0 0 Z " fill="#FEE2FF" transform="translate(162.25,110.125)"/>
<path d="M0 0 C0.66 0 1.32 0 2 0 C2.21914062 0.66644531 2.43828125 1.33289063 2.6640625 2.01953125 C8.81279067 19.89083466 18.95535732 32.94876053 35.7109375 41.90234375 C41.9919646 44.91423558 48.08747761 46.37158887 55 47 C55 47.33 55 47.66 55 48 C20.35 48 -14.3 48 -50 48 C-46.96732143 46.48366071 -44.04343633 45.26034149 -40.87353516 44.09863281 C-24.3163123 37.91003148 -13.03326625 27.29977769 -5.5078125 11.39453125 C-4.43657415 8.98285734 -3.392139 6.56772525 -2.3671875 4.13671875 C-1 1 -1 1 0 0 Z " fill="#A242EF" transform="translate(202,147)"/>
<path d="M0 0 C0.66 0.33 1.32 0.66 2 1 C1.34 1.66 0.68 2.32 0 3 C-1.22618389 11.4240426 0.87894235 19.14906826 5.5 26.1875 C10.23772075 32.12449342 17.53046403 35.90573677 25 37 C33.73902949 37.89593412 40.76841812 35.90921254 48 30.9375 C50.17417381 28.96803139 50.17417381 28.96803139 52 26 C51.29400164 34.47198034 48.13173904 40.61378944 41.9375 46.4609375 C33.51729164 53.14957075 24.38487057 53.74711299 14 53 C6.41262603 51.1825338 -0.21152688 46.09621858 -4.57421875 39.6875 C-9.35632927 31.35648798 -10.66062309 22.61541699 -8.28125 13.13671875 C-6.32399967 7.93579952 -3.81221316 4.02400278 0 0 Z " fill="#FDC5FF" transform="translate(242,111)"/>
<path d="M0 0 C0.33 0 0.66 0 1 0 C1.22042969 1.57587891 1.22042969 1.57587891 1.4453125 3.18359375 C3.00655007 13.32801278 4.98442653 21.4338626 13.5625 27.9375 C20.70725137 32.71780128 29.3663587 33.87581819 37.7890625 32.56640625 C43.4668335 31.01073215 48.21025722 28.38492995 53 25 C52.61513414 32.69731728 47.53484997 37.74321223 42.1875 42.8125 C35.2053489 48.58265506 28.06416554 49.59295981 19.14453125 49.34375 C10.76271837 48.42747729 4.73217134 43.96613751 -1 38 C-6.80853045 30.51005284 -7.9693484 23.29640152 -7 14 C-5.54199054 8.74254718 -3.49573858 4.21404103 0 0 Z " fill="#FDBCFF" transform="translate(118,116)"/>
<path d="M0 0 C9.9 0 19.8 0 30 0 C31.125 11.25 31.125 11.25 31.09765625 15.3515625 C31.09515869 16.13869629 31.09266113 16.92583008 31.09008789 17.73681641 C31.08098389 18.68991699 31.07187988 19.64301758 31.0625 20.625 C31.041875 23.71875 31.02125 26.8125 31 30 C20.77 30 10.54 30 0 30 C0 20.1 0 10.2 0 0 Z " fill="#2955E5" transform="translate(111,294)"/>
<path d="M0 0 C0.33 0 0.66 0 1 0 C1.33 6.27 1.66 12.54 2 19 C1.01 19.33 0.02 19.66 -1 20 C-0.67 13.4 -0.34 6.8 0 0 Z " fill="#CD56F7" transform="translate(202,128)"/>
</svg>
